# xmcd CD database file
#
# Track frame offsets:
#	150
#	8768
#	19731
#	43936
#	62257
#	77458
#	97215
#	105899
#	114775
#	136623
#	154370
#	174876
#	184278
#	194970
#	224149
#	238014
#	248166
#
# Disc length: 3567 seconds
#
# Revision: 0
# Processed by: cddbd v1.4PL0 Copyright (c) Steve Scherf et al.
# Submitted via: CDex 1.50
#
DISCID=e00ded11
DTITLE=Jeff Wahl - Guinevere
DYEAR=2003
DGENRE=New Age
TTITLE0=Loop-o-plane
TTITLE1=Happy despite it all
TTITLE2=Guinevere
TTITLE3=Freedom
TTITLE4=Starting over
TTITLE5=Before I knew
TTITLE6=The Return of Summer
TTITLE7=Linus and Lucy
TTITLE8=How it should have been
TTITLE9=Root beer meteor shower
TTITLE10=Yes
TTITLE11=She misses the ocean
TTITLE12=Kicked in the head by a horse
TTITLE13=Tristan and Isolde
TTITLE14=Her beauty
TTITLE15=Going to the circus
TTITLE16=Waltz for the broken hearted
EXTD=YEAR: 2003
EXTT0=
EXTT1=
EXTT2=
EXTT3=
EXTT4=
EXTT5=
EXTT6=
EXTT7=
EXTT8=
EXTT9=
EXTT10=
EXTT11=
EXTT12=
EXTT13=
EXTT14=
EXTT15=
EXTT16=
PLAYORDER=
